<svg width="1024" height="1024" viewBox="0 0 1024 1024" fill="none" xmlns="http://www.w3.org/2000/svg">
<path d="M806.936 454.887C800.988 438.546 781.524 431.731 767.354 441.811C677.733 505.563 613.472 596.959 582.311 699.403C492.589 640.956 384.612 612.248 274.978 621.017C257.644 622.403 247.114 640.134 253.061 656.475L311.125 816C336.284 795.286 365.334 778.425 397.702 766.644C468.631 740.829 543.037 743.944 607.993 769.963C641.028 708.28 696.023 658.067 766.952 632.252C799.32 620.471 832.412 614.715 865 614.411L806.936 454.887Z" fill="url(#paint0_linear_1096_21135)"/>
<path d="M715.547 203.804C709.599 187.463 690.135 180.648 675.965 190.728C586.344 254.48 522.083 345.876 490.921 448.32C401.199 389.873 293.223 361.164 183.589 369.934C166.254 371.32 155.724 389.051 161.672 405.392L219.736 564.917C244.895 544.203 273.945 527.342 306.313 515.561C377.241 489.746 451.647 492.861 516.604 518.88C549.638 457.196 604.634 406.984 675.563 381.168C707.931 369.388 741.023 363.632 773.611 363.328L715.547 203.804Z" fill="url(#paint1_linear_1096_21135)"/>
<defs>
<linearGradient id="paint0_linear_1096_21135" x1="866.237" y1="774.913" x2="144.514" y2="755.28" gradientUnits="userSpaceOnUse">
<stop stop-color="#00BDB6"/>
<stop offset="1" stop-color="#4DE7DC"/>
</linearGradient>
<linearGradient id="paint1_linear_1096_21135" x1="866.237" y1="774.913" x2="144.514" y2="755.28" gradientUnits="userSpaceOnUse">
<stop stop-color="#1773EB"/>
<stop offset="1" stop-color="#4DA0FF"/>
</linearGradient>
</defs>
</svg>
