<svg width="114" height="24" viewBox="0 0 114 24" fill="none" xmlns="http://www.w3.org/2000/svg">
    <path fill-rule="evenodd" clip-rule="evenodd" d="M20.8691 4.96484V8.2945C20.8691 12.2101 17.7068 15.3842 13.8059 15.3842C13.4823 15.3842 13.1591 15.3619 12.8386 15.3174C8.80513 14.7577 6.09691 14.5485 4.71387 14.6899C2.5557 14.9106 1.00073 16.2534 0.0489655 18.7182V5.46133C0.0489655 2.44512 2.48494 0 5.48986 0L15.9229 0C18.6546 0 20.8691 2.22284 20.8691 4.96484Z" fill="url(#paint0_linear_733_5003)"/>
    <path fill-rule="evenodd" clip-rule="evenodd" d="M21.7842 12.1804C21.7758 16.36 21.7851 18.9106 21.8121 19.8322C21.8534 21.2392 22.347 22.6286 23.293 24.0003H13.387C9.01624 24.0003 5.47301 20.4438 5.47301 16.0565C5.47301 15.9815 5.47408 15.9064 5.4762 15.8313C5.6249 10.5689 5.69925 7.7341 5.69925 7.32699C5.69925 6.74419 5.54688 5.70876 5.24214 4.2207L13.8701 4.2207C18.2409 4.2207 21.7842 7.77724 21.7842 12.1644C21.7842 12.1698 21.7842 12.1751 21.7842 12.1804Z" fill="url(#paint1_linear_733_5003)"/>
    <path d="M9.32336 9.92929C10.2112 9.92929 10.9309 9.20687 10.9309 8.31572C10.9309 7.42457 10.2112 6.70215 9.32336 6.70215C8.43554 6.70215 7.71582 7.42457 7.71582 8.31572C7.71582 9.20687 8.43554 9.92929 9.32336 9.92929Z" fill="white"/>
    <path d="M10.1121 15.0078C10.0455 16.1734 10.6614 19.1145 14.1101 19.7888" stroke="white" stroke-width="1.31579"/>
    <path d="M38.9889 20.7135C37.8078 20.7135 36.7089 20.5116 35.6923 20.108C34.6906 19.6894 33.8085 19.1063 33.046 18.3587C32.2985 17.6112 31.7154 16.744 31.2967 15.7573C30.8781 14.7556 30.6688 13.6791 30.6688 12.5279C30.6688 11.3767 30.8781 10.3077 31.2967 9.32096C31.7154 8.31926 32.2985 7.45211 33.046 6.71952C33.7935 5.98693 34.6682 5.4188 35.6699 5.01513C36.6865 4.5965 37.7854 4.38719 38.9665 4.38719C40.2224 4.38719 41.3362 4.58903 42.308 4.9927C43.2948 5.39637 44.1545 5.94955 44.887 6.65224L42.5323 9.02942C42.1137 8.5809 41.6053 8.22955 41.0073 7.97539C40.4242 7.72122 39.744 7.59414 38.9665 7.59414C38.2788 7.59414 37.6434 7.71375 37.0603 7.95296C36.4922 8.17722 35.9988 8.50614 35.5802 8.93972C35.1765 9.37329 34.855 9.89657 34.6158 10.5096C34.3916 11.1225 34.2794 11.7953 34.2794 12.5279C34.2794 13.2755 34.3916 13.9557 34.6158 14.5687C34.855 15.1817 35.1765 15.705 35.5802 16.1385C35.9988 16.5721 36.4922 16.9085 37.0603 17.1477C37.6434 17.3869 38.2788 17.5065 38.9665 17.5065C39.7739 17.5065 40.4765 17.3795 41.0746 17.1253C41.6726 16.8711 42.1884 16.5198 42.622 16.0713L44.9992 18.4484C44.2367 19.1511 43.3621 19.7043 42.3753 20.108C41.4035 20.5116 40.2747 20.7135 38.9889 20.7135ZM54.3568 20.4668V14.2547C54.3568 13.6866 54.1774 13.2306 53.8186 12.8867C53.4747 12.5279 53.0337 12.3485 52.4954 12.3485C52.1217 12.3485 51.7927 12.4307 51.5087 12.5952C51.2246 12.7447 51.0003 12.969 50.8359 13.268C50.6714 13.552 50.5892 13.881 50.5892 14.2547L49.266 13.6044C49.266 12.7522 49.4455 12.0046 49.8043 11.3617C50.1631 10.7189 50.6639 10.2255 51.3068 9.88162C51.9497 9.5228 52.6898 9.34339 53.527 9.34339C54.3792 9.34339 55.1268 9.5228 55.7697 9.88162C56.4125 10.2255 56.9059 10.7114 57.2498 11.3393C57.6086 11.9523 57.788 12.6699 57.788 13.4922V20.4668H54.3568ZM47.158 20.4668V4.18536H50.5892V20.4668H47.158ZM65.0782 20.6911C64.0765 20.6911 63.1795 20.4444 62.3871 19.951C61.6096 19.4576 60.9892 18.7848 60.5257 17.9326C60.0772 17.0804 59.8529 16.1086 59.8529 15.0172C59.8529 13.9258 60.0772 12.954 60.5257 12.1018C60.9892 11.2496 61.6096 10.5768 62.3871 10.0835C63.1795 9.59008 64.0765 9.34339 65.0782 9.34339C65.8108 9.34339 66.4686 9.48542 67.0517 9.76949C67.6498 10.0536 68.1357 10.4497 68.5094 10.9581C68.8832 11.4515 69.0925 12.0196 69.1374 12.6625V17.372C69.0925 18.0149 68.8832 18.5905 68.5094 19.0988C68.1506 19.5922 67.6722 19.9809 67.0742 20.265C66.4761 20.549 65.8108 20.6911 65.0782 20.6911ZM65.7734 17.5962C66.506 17.5962 67.0966 17.357 67.5451 16.8786C67.9936 16.3852 68.2179 15.7648 68.2179 15.0172C68.2179 14.5089 68.1132 14.0604 67.9039 13.6716C67.7096 13.2829 67.4255 12.9839 67.0517 12.7746C66.6929 12.5503 66.2743 12.4382 65.7959 12.4382C65.3174 12.4382 64.8913 12.5503 64.5176 12.7746C64.1587 12.9839 63.8672 13.2829 63.6429 13.6716C63.4336 14.0604 63.329 14.5089 63.329 15.0172C63.329 15.5106 63.4336 15.9516 63.6429 16.3404C63.8523 16.7291 64.1438 17.0356 64.5176 17.2598C64.8913 17.4841 65.31 17.5962 65.7734 17.5962ZM68.0833 20.4668V17.529L68.5991 14.8827L68.0833 12.2364V9.56765H71.4473V20.4668H68.0833ZM75.9445 20.4668V5.05998H79.3758V20.4668H75.9445ZM73.4777 12.4831V9.56765H81.8426V12.4831H73.4777ZM83.8884 20.4668V9.56765H87.3196V20.4668H83.8884ZM85.6153 8.06509C85.077 8.06509 84.6285 7.88568 84.2697 7.52686C83.9258 7.15309 83.7539 6.70457 83.7539 6.18129C83.7539 5.64306 83.9258 5.19454 84.2697 4.83572C84.6285 4.4769 85.077 4.29749 85.6153 4.29749C86.1535 4.29749 86.5945 4.4769 86.9384 4.83572C87.2823 5.19454 87.4542 5.64306 87.4542 6.18129C87.4542 6.70457 87.2823 7.15309 86.9384 7.52686C86.5945 7.88568 86.1535 8.06509 85.6153 8.06509ZM93.7011 20.4668L89.0813 9.56765H92.7816L95.9213 18.6503H94.3066L97.4463 9.56765H101.079L96.4595 20.4444L93.7011 20.4668ZM107.925 20.7135C106.744 20.7135 105.69 20.4743 104.763 19.9958C103.851 19.5025 103.133 18.8222 102.61 17.9551C102.087 17.0879 101.825 16.1086 101.825 15.0172C101.825 13.9258 102.079 12.954 102.587 12.1018C103.111 11.2347 103.813 10.5544 104.695 10.061C105.578 9.56765 106.572 9.32096 107.678 9.32096C108.755 9.32096 109.704 9.5527 110.526 10.0162C111.349 10.4796 111.991 11.1225 112.455 11.9448C112.933 12.7671 113.173 13.709 113.173 14.7705C113.173 14.9649 113.158 15.1742 113.128 15.3985C113.113 15.6078 113.075 15.8545 113.016 16.1385L103.619 16.161V13.8062L111.558 13.7838L110.078 14.7705C110.063 14.1426 109.966 13.6268 109.786 13.2231C109.607 12.8045 109.338 12.4905 108.979 12.2812C108.635 12.057 108.209 11.9448 107.701 11.9448C107.162 11.9448 106.691 12.0719 106.288 12.3261C105.899 12.5653 105.593 12.9092 105.368 13.3577C105.159 13.8062 105.054 14.3519 105.054 14.9948C105.054 15.6377 105.166 16.1909 105.391 16.6543C105.63 17.1029 105.959 17.4542 106.377 17.7084C106.811 17.9476 107.319 18.0672 107.902 18.0672C108.441 18.0672 108.927 17.9775 109.36 17.7981C109.794 17.6037 110.175 17.3196 110.504 16.9459L112.388 18.8297C111.849 19.4576 111.199 19.9286 110.437 20.2425C109.674 20.5565 108.837 20.7135 107.925 20.7135Z" fill="#1E2329"/>
    <defs>
        <linearGradient id="paint0_linear_733_5003" x1="1.40679" y1="18.751" x2="1.8257" y2="-0.416198" gradientUnits="userSpaceOnUse">
            <stop stop-color="#00BDB6"/>
            <stop offset="1" stop-color="#4DE7DC"/>
        </linearGradient>
        <linearGradient id="paint1_linear_733_5003" x1="6.41936" y1="24.035" x2="6.95876" y2="3.7856" gradientUnits="userSpaceOnUse">
            <stop stop-color="#1773EB"/>
            <stop offset="1" stop-color="#4DA0FF"/>
        </linearGradient>
    </defs>
</svg>
