<svg width="24" height="24" viewBox="0 0 24 24" fill="none" xmlns="http://www.w3.org/2000/svg">
    <path d="M19 3H5C4.20435 3 3.44129 3.31607 2.87868 3.87868C2.31607 4.44129 2 5.20435 2 6V9C2 9.26522 2.10536 9.51957 2.29289 9.70711C2.48043 9.89464 2.73478 10 3 10H4V18C4 18.7956 4.31607 19.5587 4.87868 20.1213C5.44129 20.6839 6.20435 21 7 21H17C17.7956 21 18.5587 20.6839 19.1213 20.1213C19.6839 19.5587 20 18.7956 20 18V10H21C21.2652 10 21.5196 9.89464 21.7071 9.70711C21.8946 9.51957 22 9.26522 22 9V6C22 5.20435 21.6839 4.44129 21.1213 3.87868C20.5587 3.31607 19.7956 3 19 3ZM18 18C18 18.2652 17.8946 18.5196 17.7071 18.7071C17.5196 18.8946 17.2652 19 17 19H7C6.73478 19 6.48043 18.8946 6.29289 18.7071C6.10536 18.5196 6 18.2652 6 18V10H18V18ZM20 8H4V6C4 5.73478 4.10536 5.48043 4.29289 5.29289C4.48043 5.10536 4.73478 5 5 5H19C19.2652 5 19.5196 5.10536 19.7071 5.29289C19.8946 5.48043 20 5.73478 20 6V8Z" fill="#1E2329"/>
    <path fill-rule="evenodd" clip-rule="evenodd" d="M14.121 11.8788C14.5115 12.2694 14.5115 12.9025 14.121 13.293L11.2926 16.1215C10.902 16.512 10.2689 16.512 9.87834 16.1215C9.48782 15.7309 9.48782 15.0978 9.87835 14.7073L12.7068 11.8788C13.0973 11.4883 13.7305 11.4883 14.121 11.8788Z" fill="#1E2329"/>
    <path fill-rule="evenodd" clip-rule="evenodd" d="M12.7073 16.1216L9.87882 13.2932C9.48829 12.9027 9.48829 12.2695 9.87881 11.879C10.2693 11.4885 10.9025 11.4885 11.293 11.879L14.1215 14.7074C14.512 15.0979 14.512 15.7311 14.1215 16.1216C13.731 16.5122 13.0978 16.5122 12.7073 16.1216Z" fill="#1E2329"/>
</svg>
