<svg width="24" height="24" viewBox="0 0 24 24" fill="none" xmlns="http://www.w3.org/2000/svg">
    <path d="M18.9998 18.0004C19.928 18.0004 20.8183 17.6317 21.4746 16.9753C22.131 16.3189 22.4998 15.4287 22.4998 14.5004C22.4998 13.5721 22.131 12.6819 21.4746 12.0255C20.8183 11.3692 19.928 11.0004 18.9998 11.0004H17.9998C18.3968 9.23241 17.7148 7.40741 16.2118 6.21341C14.7088 5.02041 12.6118 4.63841 10.7118 5.21341C8.81176 5.78841 7.39676 7.23241 6.99976 9.00041C4.80076 8.91241 2.84476 10.3264 2.33376 12.3734C1.82176 14.4204 2.89776 16.5274 4.89976 17.4004" stroke="black" stroke-width="2" stroke-linecap="round" stroke-linejoin="round"/>
    <path d="M15 15H9C8.44772 15 8 15.4477 8 16V19C8 19.5523 8.44772 20 9 20H15C15.5523 20 16 19.5523 16 19V16C16 15.4477 15.5523 15 15 15Z" stroke="black" stroke-width="2" stroke-linecap="round" stroke-linejoin="round"/>
    <path d="M10 15.0009V13.0009C9.99981 12.5599 10.1454 12.1311 10.4141 11.7814C10.6828 11.4317 11.0596 11.1806 11.4858 11.0672C11.912 10.9538 12.3637 10.9845 12.7707 11.1544C13.1776 11.3244 13.517 11.6241 13.736 12.0069" stroke="black" stroke-width="2" stroke-linecap="round" stroke-linejoin="round"/>
</svg>
