<svg width="28" height="29" viewBox="0 0 28 29" fill="none" xmlns="http://www.w3.org/2000/svg">
<path fill-rule="evenodd" clip-rule="evenodd" d="M24.4039 9.76944V5.8477C24.4039 2.6181 21.8082 0 18.6062 0H6.37742C2.85527 0 0 2.87991 0 6.43246V22.0466C1.11559 19.1436 2.93822 17.5621 5.46787 17.3021C5.73637 17.2745 6.04749 17.2583 6.40121 17.2533C6.54949 11.9463 6.62362 9.07161 6.62362 8.62935C6.62362 7.94291 6.44502 6.72337 6.08783 4.9707H16.201C19.7566 4.9707 22.845 6.98847 24.402 9.95066C24.4033 9.89041 24.4039 9.83 24.4039 9.76944Z" fill="url(#paint0_linear_817_5277)"/>
<path fill-rule="evenodd" clip-rule="evenodd" d="M25.4772 14.3458C25.4674 19.2686 25.4783 22.2728 25.51 23.3583C25.5584 25.0155 26.137 26.6519 27.2458 28.2675H15.6347C10.5116 28.2675 6.3585 24.0786 6.3585 18.9112C6.3585 18.8228 6.35974 18.7343 6.36223 18.6459C6.53653 12.4477 6.62368 9.10886 6.62368 8.62935C6.62368 7.94291 6.44508 6.72337 6.08789 4.9707H16.201C21.3241 4.9707 25.4773 9.15967 25.4773 14.327L25.4772 14.3458ZM10.8713 11.6953C11.912 11.6953 12.7556 10.8445 12.7556 9.79485C12.7556 8.74523 11.912 7.89435 10.8713 7.89435C9.83069 7.89435 8.98709 8.74523 8.98709 9.79485C8.98709 10.8445 9.83069 11.6953 10.8713 11.6953ZM10.2664 17.5907C10.2122 18.5436 10.4265 20.0631 11.2772 21.4936C12.1636 22.9843 13.7155 24.3271 16.1873 24.8127L16.7781 21.805C15.2076 21.4965 14.3773 20.7101 13.9117 19.927C13.4103 19.0838 13.3027 18.1848 13.3266 17.7648L10.2664 17.5907Z" fill="white"/>
<defs>
<linearGradient id="paint0_linear_817_5277" x1="9.46786" y1="-27.3138" x2="8.78672" y2="43.1843" gradientUnits="userSpaceOnUse">
<stop offset="0.0926141" stop-color="white"/>
<stop offset="1" stop-color="white" stop-opacity="0"/>
</linearGradient>
</defs>
</svg>
